<svg width="256" height="256" viewBox="0 0 256 256" fill="none" xmlns="http://www.w3.org/2000/svg">
  <defs>
    <linearGradient id="bg" x1="40" y1="28" x2="208" y2="228" gradientUnits="userSpaceOnUse">
      <stop stop-color="#6BE7FF"/>
      <stop offset="1" stop-color="#4E7BFF"/>
    </linearGradient>
    <linearGradient id="fur" x1="78" y1="78" x2="188" y2="186" gradientUnits="userSpaceOnUse">
      <stop stop-color="#C6A27B"/>
      <stop offset="1" stop-color="#8A6647"/>
    </linearGradient>
  </defs>
  <rect x="18" y="18" width="220" height="220" rx="64" fill="#071120"/>
  <circle cx="128" cy="132" r="84" fill="url(#bg)" fill-opacity="0.16"/>
  <path d="M92 44H164L170 66H86L92 44Z" fill="#101522"/>
  <rect x="100" y="20" width="56" height="38" rx="8" fill="#101522"/>
  <rect x="114" y="28" width="28" height="10" rx="5" fill="#1D2B45"/>
  <path d="M82 146C82 112.863 108.863 86 142 86C175.137 86 202 112.863 202 146C202 179.137 175.137 206 142 206H118C98.1177 206 82 189.882 82 170V146Z" fill="url(#fur)"/>
  <ellipse cx="135" cy="154" rx="38" ry="34" fill="#EAD8C5"/>
  <ellipse cx="113" cy="103" rx="15" ry="18" fill="#7F5D40"/>
  <ellipse cx="171" cy="106" rx="15" ry="18" fill="#7F5D40"/>
  <circle cx="120" cy="146" r="7" fill="#152033"/>
  <circle cx="156" cy="146" r="7" fill="#152033"/>
  <path d="M134 156C129.582 156 126 159.582 126 164C126 168.418 129.582 172 134 172C138.418 172 142 168.418 142 164" stroke="#152033" stroke-width="6" stroke-linecap="round"/>
  <path d="M112 180C122.5 188 146.5 188 158 180" stroke="#152033" stroke-width="6" stroke-linecap="round"/>
  <circle cx="156" cy="146" r="18" stroke="#F8D36D" stroke-width="6"/>
  <path d="M173 129L187 109" stroke="#F8D36D" stroke-width="5" stroke-linecap="round"/>
  <circle cx="187" cy="109" r="5" fill="#F8D36D"/>
  <path d="M79 153C69 146 66 132 72 121C76 113 85 108 94 108" stroke="#7F5D40" stroke-width="10" stroke-linecap="round"/>
  <path d="M92 192C81 188 73 178 71 166" stroke="#7F5D40" stroke-width="10" stroke-linecap="round"/>
  <path d="M186 190C198 184 206 172 207 159" stroke="#7F5D40" stroke-width="10" stroke-linecap="round"/>
  <path d="M195 117C204 122 211 131 212 142" stroke="#7F5D40" stroke-width="10" stroke-linecap="round"/>
  <path d="M88 74C91 66 99 61 108 61C118 61 126 67 129 76" stroke="#101522" stroke-width="8" stroke-linecap="round"/>
  <path d="M149 76C152 67 160 61 170 61C179 61 187 66 190 74" stroke="#101522" stroke-width="8" stroke-linecap="round"/>
</svg>